# xmcd
#
# Track frame offsets: 
#        150
#        18045
#        38825
#        55557
#        72515
#        83370
#        99962
#        122015
#        136545
#        157167
#        174610
#        191955
#
# Disc length: 2772 seconds
#
# Revision: 2
# Processed by: cddbd v1.5.2PL0 Copyright (c) Steve Scherf et al.
# Submitted via: ExactAudioCopy v0.99pb5
#
DISCID=900ad20c
DTITLE=Craig Bickhardt - Easy Fires
DYEAR=2003
DGENRE=Country
TTITLE0=Easy Fire
TTITLE1=The Only Way I Know
TTITLE2=Sugarcane Street
TTITLE3=Where I Used to Have a Heart
TTITLE4=Pay Your Love On Time
TTITLE5=Still the Voice
TTITLE6=Troubled Shores
TTITLE7=One Rose
TTITLE8=I Can't Turn the Tide
TTITLE9=Dance with Father Time
TTITLE10=The Ransom
TTITLE11=St. Martin's Summer
EXTD=YEAR: 2003 ID3G: 2
EXTT0=
EXTT1=
EXTT2=
EXTT3=
EXTT4=
EXTT5=
EXTT6=
EXTT7=
EXTT8=
EXTT9=
EXTT10=
EXTT11=
PLAYORDER=
